<svg width="17" height="16" viewBox="0 0 17 16" fill="none" xmlns="http://www.w3.org/2000/svg">
<path d="M0 5.2959C0 8.84863 2.98828 12.3682 7.59521 15.3564C7.90234 15.5557 8.25928 15.7466 8.5 15.7466C8.74072 15.7466 9.08936 15.5557 9.39648 15.3564C14.0034 12.3682 16.9917 8.84863 16.9917 5.2959C16.9917 2.1582 14.8169 0 12.0776 0C10.4673 0 9.23047 0.722168 8.5 1.80127C7.76953 0.730469 6.52441 0 4.91406 0C2.18311 0 0 2.1582 0 5.2959ZM1.93408 5.2793C1.93408 3.25391 3.27881 1.88428 5.08838 1.88428C6.54102 1.88428 7.34619 2.73926 7.86084 3.51123C8.09326 3.84326 8.26758 3.96777 8.5 3.96777C8.73242 3.96777 8.88184 3.83496 9.13086 3.51123C9.67871 2.75586 10.459 1.88428 11.9033 1.88428C13.7129 1.88428 15.0659 3.25391 15.0659 5.2793C15.0659 8.10986 12.1523 11.2891 8.64111 13.6216C8.57471 13.6714 8.5249 13.6963 8.5 13.6963C8.4668 13.6963 8.41699 13.6714 8.35059 13.6216C4.83936 11.2891 1.93408 8.10986 1.93408 5.2793Z" fill="#4D4E50"/>
</svg>
