<svg width="20" height="15" viewBox="0 0 20 15" fill="none" xmlns="http://www.w3.org/2000/svg">
<path d="M2.81396 14.7256H16.917C18.7515 14.7256 19.731 13.7544 19.731 11.9365V7.01416C19.731 5.98486 19.5981 5.52832 19.1167 4.93896L16.4854 1.70166C15.4312 0.406738 14.9663 0 13.439 0H6.28369C4.76465 0 4.2998 0.406738 3.24561 1.70166L0.614258 4.93896C0.132812 5.53662 0 5.98486 0 7.01416V11.9365C0 13.7627 0.979492 14.7256 2.81396 14.7256ZM9.86133 8.64941C8.78223 8.64941 8.11816 7.72803 8.11816 6.87305V6.83984C8.11816 6.52441 7.92725 6.23389 7.4873 6.23389H2.24121C1.97559 6.23389 1.91748 6.00146 2.05859 5.82715L4.99707 2.1499C5.354 1.70996 5.74414 1.51074 6.27539 1.51074H13.4473C13.9785 1.51074 14.377 1.70996 14.7256 2.1499L17.6724 5.82715C17.8135 6.00146 17.7554 6.23389 17.4897 6.23389H12.2437C11.8037 6.23389 11.6045 6.52441 11.6045 6.83984V6.87305C11.6045 7.72803 10.9487 8.64941 9.86133 8.64941ZM2.93018 12.8828C2.20801 12.8828 1.80957 12.5093 1.80957 11.7456V7.84424H6.60742C6.90625 9.28027 8.19287 10.3428 9.86133 10.3428C11.5381 10.3428 12.8164 9.27197 13.1235 7.84424H17.9131V11.7456C17.9131 12.5093 17.5146 12.8828 16.7925 12.8828H2.93018Z" fill="#4D4E50"/>
</svg>
