<svg width="18" height="19" viewBox="0 0 18 19" fill="none" xmlns="http://www.w3.org/2000/svg">
<path d="M3.27574 15.0375C5.61656 17.3783 8.48033 18.1088 9.80015 18.2582C10.431 18.3578 10.8377 18.0507 10.8626 17.5443C10.8876 17.0961 10.6219 16.7724 10.0824 16.6479C8.87046 16.4237 6.38023 15.8178 4.44615 13.8671C1.32505 10.7377 0.669291 5.84025 3.28404 3.2172C5.35093 1.15861 8.77085 1.33292 11.286 2.69425L12.5145 1.48234C9.16929 -0.567957 4.74497 -0.592859 2.11363 2.04679C-1.03237 5.20109 -0.683736 11.078 3.27574 15.0375ZM16.1502 2.85196L16.889 2.08829C17.2709 1.68986 17.3124 1.1088 16.9222 0.726965L16.6649 0.469641C16.3163 0.137609 15.7352 0.179113 15.3617 0.552649L14.6063 1.29972L16.1502 2.85196ZM8.00718 10.9784L15.5277 3.46622L13.9837 1.92228L6.47154 9.43448L5.72447 11.269C5.61656 11.5346 5.89048 11.7919 6.14781 11.7006L8.00718 10.9784ZM6.50474 12.4892C9.11949 15.2699 13.7928 16.2743 16.2997 13.7592C18.3583 11.7089 18.2254 8.06486 15.9759 4.89396L14.7723 6.08927C16.3661 8.43009 16.6483 11.0614 15.1293 12.5888C13.245 14.4648 10.2152 13.6347 8.28941 11.7836L6.50474 12.4892Z" fill="#4D4E50"/>
</svg>
