<svg width="20" height="18" viewBox="0 0 20 18" fill="none" xmlns="http://www.w3.org/2000/svg">
<path d="M7.6139 4.39956C7.74004 4.39956 7.81213 4.32053 7.83015 4.20637C8.13651 2.75741 8.11849 2.7135 9.6683 2.41493C9.80345 2.38858 9.87554 2.31833 9.87554 2.19539C9.87554 2.08123 9.80345 2.01098 9.67731 1.98463C8.10948 1.67728 8.11849 1.63337 7.83015 0.193194C7.81213 0.079034 7.74004 0 7.6139 0C7.49676 0 7.42467 0.079034 7.39764 0.193194C7.09129 1.65093 7.11832 1.70362 5.5595 1.98463C5.43335 2.0022 5.35225 2.08123 5.35225 2.19539C5.35225 2.31833 5.43335 2.38858 5.55049 2.41493C7.11832 2.72228 7.10931 2.75741 7.39764 4.20637C7.41566 4.32053 7.49676 4.39956 7.6139 4.39956ZM15.3089 7.5258C15.444 7.5258 15.5432 7.4292 15.5612 7.29747C15.8856 5.59385 15.8765 5.50604 17.7147 5.19868C17.8589 5.17234 17.958 5.08452 17.958 4.94402C17.958 4.80351 17.8589 4.7157 17.7237 4.68935C15.8675 4.37322 15.8495 4.2854 15.5612 2.59934C15.5432 2.45884 15.444 2.36224 15.3089 2.36224C15.1647 2.36224 15.0746 2.45884 15.0476 2.59056C14.7412 4.30296 14.7412 4.40834 12.8941 4.68935C12.7589 4.7157 12.6508 4.80351 12.6508 4.94402C12.6598 5.08452 12.7499 5.17234 12.8941 5.19868C14.7412 5.51482 14.7592 5.60263 15.0476 7.29747C15.0746 7.4292 15.1647 7.5258 15.3089 7.5258ZM2.6491 10.1515C2.79326 10.1515 2.88337 10.0549 2.9104 9.92316C3.19874 8.21954 3.21676 8.12294 5.05491 7.82437C5.20809 7.79802 5.29819 7.71021 5.29819 7.5697C5.29819 7.4292 5.20809 7.34138 5.06392 7.31504C3.21676 6.9989 3.20775 6.91109 2.9104 5.21625C2.88337 5.08452 2.79326 4.98793 2.6491 4.98793C2.50493 4.98793 2.41482 5.08452 2.3968 5.21625C2.09945 6.92865 2.08143 7.01647 0.234274 7.31504C0.0991158 7.34138 0 7.4292 0 7.5697C0 7.71021 0.0991158 7.79802 0.234274 7.82437C2.08143 8.1405 2.08143 8.22832 2.3968 9.92316C2.41482 10.0549 2.50493 10.1515 2.6491 10.1515ZM18.0751 17.6773C18.5076 18.1076 19.2555 18.1076 19.679 17.6773C20.1115 17.2382 20.1025 16.5445 19.679 16.1142L11.119 7.72777C10.6865 7.29747 9.9296 7.29747 9.51512 7.72777C9.0736 8.17563 9.08261 8.86937 9.51512 9.29089L18.0751 17.6773ZM12.9752 11.6004L10.272 8.95719C10.0918 8.78156 10.0287 8.5708 10.2089 8.39517C10.3711 8.24588 10.5874 8.28979 10.7856 8.4742L13.4797 11.1087L12.9752 11.6004ZM6.98316 17.8968C7.17238 17.8968 7.30754 17.7739 7.33457 17.5719C7.62291 15.2097 7.74004 15.1306 10.2179 14.7618C10.4342 14.7267 10.5693 14.6125 10.5693 14.4193C10.5693 14.2349 10.4342 14.112 10.254 14.0768C7.74905 13.6114 7.62291 13.629 7.33457 11.2667C7.30754 11.0648 7.17238 10.9418 6.98316 10.9418C6.79394 10.9418 6.65878 11.0648 6.64076 11.258C6.3344 13.6641 6.2443 13.7431 3.72135 14.0768C3.54114 14.1032 3.40598 14.2349 3.40598 14.4193C3.40598 14.6037 3.54114 14.7267 3.71234 14.7618C6.2443 15.236 6.32539 15.2272 6.64076 17.5895C6.65878 17.7739 6.80295 17.8968 6.98316 17.8968Z" fill="#4D4E50"/>
</svg>
