<svg width="17" height="18" viewBox="0 0 17 18" fill="none" xmlns="http://www.w3.org/2000/svg">
<path d="M6.59082 17.9629C7.03906 17.9629 7.37939 17.6143 7.37939 17.1826V0.788574C7.37939 0.356934 7.03906 0 6.59082 0C6.15088 0 5.81055 0.356934 5.81055 0.788574V17.1826C5.81055 17.6143 6.15088 17.9629 6.59082 17.9629ZM12.4097 16.145C12.8496 16.145 13.1982 15.7881 13.1982 15.3564V2.61475C13.1982 2.18311 12.8496 1.81787 12.4097 1.81787C11.9614 1.81787 11.6211 2.18311 11.6211 2.61475V15.3564C11.6211 15.7881 11.9614 16.145 12.4097 16.145ZM3.68555 14.8252C4.13379 14.8252 4.47412 14.4766 4.47412 14.0366V3.92627C4.47412 3.49463 4.13379 3.1377 3.68555 3.1377C3.24561 3.1377 2.90527 3.49463 2.90527 3.92627V14.0366C2.90527 14.4766 3.24561 14.8252 3.68555 14.8252ZM9.50439 13.6963C9.94434 13.6963 10.293 13.356 10.293 12.916V5.04688C10.293 4.61523 9.94434 4.2583 9.50439 4.2583C9.05615 4.2583 8.71582 4.61523 8.71582 5.04688V12.916C8.71582 13.356 9.05615 13.6963 9.50439 13.6963ZM15.3149 12.1191C15.7549 12.1191 16.1035 11.7705 16.1035 11.3306V6.63232C16.1035 6.20068 15.7549 5.84375 15.3149 5.84375C14.8667 5.84375 14.5347 6.20068 14.5347 6.63232V11.3306C14.5347 11.7705 14.8667 12.1191 15.3149 12.1191ZM0.780273 11.5132C1.22021 11.5132 1.56885 11.1646 1.56885 10.7246V7.23828C1.56885 6.80664 1.22021 6.44971 0.780273 6.44971C0.340332 6.44971 0 6.80664 0 7.23828V10.7246C0 11.1646 0.340332 11.5132 0.780273 11.5132Z" fill="#4D4E50"/>
</svg>
