<svg width="99" height="106" viewBox="0 0 99 106" fill="none" xmlns="http://www.w3.org/2000/svg">
<g clip-path="url(#clip0_572_843)">
<path d="M0.955419 34.209C0.116321 33.8129 -0.222806 32.9721 0.151203 32.176C0.540715 31.3449 1.40307 31.0711 2.24217 31.4653C3.01731 31.8303 3.33319 32.6595 2.94367 33.4906C2.56967 34.2887 1.73057 34.5741 0.955419 34.209Z" fill="white"/>
<path d="M0.682129 24.0552L1.57161 22.9114L8.81343 25.1368L8.83475 25.1076L4.89894 18.6336L5.80392 17.4724L12.4586 22.6707L11.8365 23.4707L6.2942 19.1404L6.27289 19.1696L10.1913 25.5853L9.59052 26.3562L2.43203 24.1037L2.40296 24.1426L7.94527 28.4728L7.33678 29.2534L0.682129 24.0552Z" fill="white"/>
<path d="M12.3076 20.5891C11.7592 19.9794 11.7185 19.2842 12.1661 18.5716C12.482 18.0745 13.0323 17.5133 13.6176 16.7579C13.8656 16.4201 13.8831 16.2589 13.6815 16.0336C13.1486 15.4414 12.5091 15.4511 11.8638 16.0336C11.2553 16.5832 11.1255 17.2512 11.5208 17.8706L10.796 18.525C10.081 17.5133 10.2864 16.3521 11.3348 15.4064C12.4452 14.4044 13.604 14.4472 14.5885 15.5424L17.1949 18.4415L16.4779 19.0881L15.7686 18.2978L15.7415 18.3211C15.9217 19.1172 15.6407 19.9231 14.9683 20.5309C14.0284 21.3795 13.0362 21.3969 12.3115 20.5891H12.3076ZM14.5497 19.8182C15.3733 19.0745 15.4314 17.9832 14.7047 17.1754L14.3908 16.8259C14.2203 17.3036 13.2416 18.2201 12.9548 18.6745C12.6758 19.1211 12.6893 19.5153 13.0285 19.892C13.4393 20.3503 13.9955 20.3192 14.5516 19.8182H14.5497Z" fill="white"/>
<path d="M16.2625 15.2433C15.2142 13.6646 15.4157 12.0509 16.7703 11.1461C17.5125 10.6509 18.4213 10.581 19.21 10.9829L19.2507 10.9558L17.1869 7.84885L18.0105 7.29932L22.8203 14.5384L22.0277 15.0666L21.3998 14.1209L21.3688 14.1403C21.4212 15.0045 20.9871 15.8317 20.2235 16.3404C18.869 17.2434 17.3051 16.8084 16.2625 15.2394V15.2433ZM19.991 15.5132C20.9832 14.851 21.113 13.6918 20.3379 12.5248C19.5627 11.3577 18.4291 11.0257 17.4466 11.682C16.4641 12.3383 16.3246 13.5034 17.1075 14.6802C17.8884 15.8569 18.9988 16.1754 19.9929 15.5132H19.991Z" fill="white"/>
<path d="M22.5103 11.2082C21.7022 9.47993 22.2448 7.87793 23.8843 7.10897C25.4133 6.39244 26.8415 7.02936 27.6651 8.79059L27.8085 9.09739L23.582 11.08C24.1633 12.1538 25.109 12.5247 26.1787 12.0237C27.0411 11.6198 27.386 10.9907 27.2697 10.311L28.1534 9.89548C28.4441 11.0004 27.8802 12.1305 26.5256 12.7655C24.8765 13.5383 23.3126 12.9247 22.5103 11.2082ZM26.6167 8.82942C26.0566 7.77113 25.171 7.41384 24.2312 7.85463C23.1828 8.34591 22.8417 9.26633 23.2642 10.4023L26.6167 8.82942Z" fill="white"/>
<path d="M31.1377 1.85827C31.5214 1.75147 31.8586 1.934 31.9651 2.31848C32.0717 2.70296 31.876 3.03307 31.4923 3.13987C31.1086 3.24667 30.783 3.06025 30.6765 2.67771C30.5699 2.29323 30.7559 1.96701 31.1377 1.86021V1.85827ZM31.3237 4.38846L32.2771 4.12437L33.9069 10.0256L32.9535 10.2896L31.3237 4.38846Z" fill="white"/>
<path d="M34.4148 3.54182L35.3527 3.38259L35.531 4.43117L35.5659 4.42535C35.8604 3.64085 36.4728 3.1321 37.3506 2.98258C38.7401 2.74568 39.6567 3.53405 39.9513 5.27198L40.5326 8.71288L39.5462 8.87988L38.9629 5.43898C38.7556 4.21175 38.1704 3.71076 37.1239 3.88941C36.0775 4.06611 35.624 4.7807 35.8255 5.97104L36.4069 9.41194L35.4321 9.57699L34.4109 3.53988L34.4148 3.54182Z" fill="white"/>
<path d="M45.3132 -1.13063e-05L48.094 0.126207C49.9854 0.211647 50.9659 1.18644 50.8904 2.88747C50.8148 4.58851 49.749 5.47203 47.8576 5.38659L46.0999 5.30698L45.9565 8.49156L44.9333 8.44496L45.3132 -0.00195312V-1.13063e-05ZM47.8731 4.50501C49.1734 4.56326 49.8013 4.02344 49.8536 2.84087C49.9059 1.6583 49.3304 1.06411 48.0301 1.00585L46.2957 0.928178L46.1387 4.42734L47.8731 4.50501Z" fill="white"/>
<path d="M52.0628 6.36523L52.743 2.84277L53.7138 3.03113L53.0104 6.68369C52.8108 7.7148 53.2681 8.40608 54.2371 8.59444C55.2312 8.78668 55.8843 8.32259 56.0858 7.27983L56.7912 3.62727L57.7737 3.81757L57.0954 7.34003C56.7737 9.01193 55.7273 9.7207 54.082 9.40224C52.4368 9.08378 51.743 8.03908 52.0647 6.36717L52.0628 6.36523Z" fill="white"/>
<path d="M58.6089 7.18847C59.2329 5.38452 60.7348 4.61556 62.444 5.20976C64.0388 5.76318 64.6202 7.2176 63.9846 9.05456L63.8741 9.37496L59.4674 7.84481C59.138 9.02155 59.5565 9.94585 60.6728 10.3342C61.5719 10.6469 62.2579 10.4371 62.6455 9.86818L63.5679 10.1886C63.0079 11.1828 61.8161 11.6003 60.4053 11.109C58.6864 10.5129 57.9908 8.98077 58.6109 7.18847H58.6089ZM63.2075 8.34968C63.5408 7.20012 63.1552 6.32436 62.1766 5.98454C61.0836 5.60395 60.198 6.02532 59.7116 7.13604L63.2075 8.34968Z" fill="white"/>
<path d="M66.7423 6.9807L67.5969 7.40013L67.0504 8.51668L67.0833 8.53221C67.6938 7.99821 68.6414 7.84481 69.7343 8.38075L69.3041 9.25846L69.0231 9.12059C67.9418 8.58853 66.9341 8.83514 66.2772 10.1808L64.94 12.9149L64.0525 12.478L66.7423 6.97876V6.9807Z" fill="white"/>
<path d="M69.5716 13.4587L71.4746 10.4061L70.432 9.7537L70.8603 9.06629L71.6277 9.54592C71.8215 9.66826 72.0153 9.63136 72.1432 9.42747L72.9028 8.20801L73.7109 8.71288L72.7536 10.2489L74.1954 11.1518L73.7671 11.8373L72.3253 10.9343L70.3836 14.049C70.089 14.5209 70.182 14.9189 70.6413 15.2083L71.3777 15.6685L70.9572 16.3442L70.1181 15.8199C69.1666 15.2257 68.9786 14.4102 69.5735 13.4567L69.5716 13.4587Z" fill="white"/>
<path d="M73.4259 14.284C74.5944 12.8373 76.3366 12.6198 77.7125 13.7364C79.1 14.8607 79.2492 16.6141 78.0807 18.0608C76.9121 19.5074 75.1777 19.7152 73.7902 18.5909C72.4027 17.4666 72.2554 15.7306 73.424 14.284H73.4259ZM74.3076 17.952C75.2533 18.7191 76.4063 18.521 77.2939 17.4219C78.1814 16.3229 78.1427 15.1422 77.197 14.3752C76.2513 13.6082 75.0983 13.8237 74.2127 14.9228C73.3251 16.0219 73.362 17.185 74.3076 17.952Z" fill="white"/>
<path d="M85.6734 18.1345L87.5512 20.4977C88.7004 21.9424 88.6655 23.2376 87.4388 24.2163C86.6191 24.8707 85.7199 24.9231 84.8479 24.3697L84.8188 24.393C85.1153 25.1911 84.9486 25.6804 84.065 26.5853L83.9196 26.731C83.4352 27.2261 83.0263 27.7213 82.7899 28.0805L82.129 27.2494C82.3422 26.9562 82.6484 26.6028 83.1832 26.0533L83.3286 25.9057C84.2781 24.9484 84.3363 24.4221 83.6464 23.5522L82.4372 22.0318L79.7125 24.2066L79.075 23.4027L85.6753 18.1345H85.6734ZM84.3479 23.0221C85.1056 23.9755 85.8808 24.1153 86.7295 23.4376C87.5686 22.7677 87.6074 21.9813 86.8478 21.0259L85.623 19.486L83.1251 21.4803L84.3498 23.0201L84.3479 23.0221Z" fill="white"/>
<path d="M88.5704 25.929L89.0975 26.7659L83.9292 30.034L83.4021 29.1971L88.5704 25.929ZM90.9346 25.0202C91.1478 25.3561 91.0703 25.7348 90.735 25.9465C90.3998 26.1581 90.0257 26.0668 89.8145 25.729C89.6013 25.3911 89.6847 25.026 90.0219 24.8124C90.3591 24.6008 90.7234 24.6823 90.9365 25.0202H90.9346Z" fill="white"/>
<path d="M87.3652 29.6883C89.0375 28.8553 90.6925 29.366 91.4909 30.9777C92.1284 32.2651 91.8397 33.5545 90.8049 34.2594L90.3708 33.3836C91.0413 32.8613 91.1614 32.1544 90.7584 31.3428C90.2119 30.2398 89.0802 29.966 87.8167 30.5952C86.5319 31.234 86.0978 32.2865 86.6462 33.3894C87.0532 34.2108 87.6675 34.5526 88.5143 34.3604L88.9484 35.2361C87.7624 35.6109 86.5668 35.0749 85.9118 33.7545C85.1017 32.1214 85.6715 30.5291 87.3652 29.6845V29.6883Z" fill="white"/>
<path d="M90.3629 35.908C92.1283 35.3332 93.7076 36.1022 94.2561 37.7916C94.8084 39.4926 93.9789 41.0441 92.2135 41.6189C90.4481 42.1937 88.8804 41.4208 88.3281 39.7217C87.7778 38.0226 88.5975 36.4847 90.3629 35.9099V35.908ZM89.1091 39.4654C89.485 40.6266 90.5605 41.0888 91.9015 40.6519C93.2425 40.215 93.853 39.2033 93.477 38.044C93.1011 36.8847 92.0178 36.4362 90.6768 36.8731C89.3358 37.31 88.7331 38.3061 89.1091 39.4654Z" fill="white"/>
<path d="M93.5199 46.1901C94.4404 46.0716 95.1767 46.5998 95.2872 47.4756C95.4035 48.3863 94.8221 49.0815 93.9016 49.1999C93.0528 49.3087 92.3416 48.7785 92.2254 47.8659C92.1149 46.9921 92.6711 46.2988 93.5199 46.192V46.1901Z" fill="white"/>
<path d="M93.3222 53.7339L93.2563 54.7455C91.9811 54.8446 91.3843 55.497 91.2971 56.8466C91.2234 58.0039 91.7312 58.7515 92.6575 58.8098C93.5004 58.8641 93.8609 58.4991 94.1806 57.2854L94.3938 56.4039C94.8143 54.7611 95.5836 54.0601 96.882 54.1436C98.3025 54.2348 99.1009 55.3397 98.9885 57.0874C98.878 58.8117 97.8917 59.8622 96.3433 59.9069L96.4072 58.8933C97.4769 58.804 98.0467 58.1884 98.1223 57.0311C98.1959 55.899 97.7541 55.2271 96.8878 55.1728C96.0565 55.1184 95.6166 55.5864 95.2988 56.7883L95.0856 57.6699C94.6632 59.3496 93.9733 59.9341 92.6148 59.8467C91.1479 59.7516 90.3165 58.5729 90.4308 56.7883C90.5529 54.8834 91.5761 53.7999 93.3222 53.73V53.7339Z" fill="white"/>
<path d="M93.1534 61.2275C94.9653 61.6295 95.94 63.0936 95.5563 64.8277C95.1726 66.5734 93.6727 67.4899 91.8608 67.0899C90.0489 66.6879 89.0858 65.2277 89.4714 63.482C89.8551 61.7363 91.3395 60.8275 93.1534 61.2295V61.2275ZM90.2718 63.6568C90.0082 64.8471 90.702 65.7928 92.0798 66.0976C93.4576 66.4025 94.4944 65.8394 94.756 64.649C95.0176 63.4587 94.3122 62.5227 92.9344 62.2179C91.5566 61.913 90.5353 62.4664 90.2718 63.6568Z" fill="white"/>
<path d="M94.2367 69.688L93.8976 70.5793L92.9073 70.2006L92.8937 70.2336C93.4189 70.888 93.5449 71.6725 93.227 72.5075C92.7232 73.8279 91.5818 74.2182 89.9365 73.5891L86.6829 72.3424L87.0394 71.4065L90.2931 72.6531C91.4539 73.0978 92.1806 72.8454 92.5604 71.8531C92.9383 70.8608 92.5546 70.1055 91.4287 69.6744L88.175 68.4277L88.5277 67.5034L94.2367 69.6899V69.688Z" fill="white"/>
<path d="M91.4423 76.4029L90.9966 77.2864L85.5415 74.5251L85.9872 73.6416L91.4423 76.4029ZM93.4364 77.968C93.2562 78.3233 92.8957 78.4515 92.5411 78.2728C92.1865 78.0942 92.0741 77.7252 92.2543 77.3699C92.4345 77.0145 92.7891 76.8961 93.1457 77.0767C93.5003 77.2573 93.6185 77.6146 93.4383 77.9699L93.4364 77.968Z" fill="white"/>
<path d="M87.6189 77.3077C89.206 78.3388 89.6614 79.9019 88.7758 81.269C88.2913 82.0185 87.4832 82.4438 86.5996 82.3894L86.5744 82.4302L89.7002 84.4613L89.1614 85.2924L81.8789 80.5602L82.3963 79.7602L83.3478 80.3777L83.3672 80.3466C82.9757 79.5738 83.0474 78.6417 83.5474 77.8708C84.433 76.5018 86.0415 76.2805 87.6189 77.3057V77.3077ZM84.09 78.5427C83.4408 79.5466 83.7819 80.6612 84.9562 81.4224C86.1287 82.1855 87.3011 82.0399 87.9444 81.0457C88.5878 80.0515 88.2526 78.9272 87.0685 78.1582C85.8845 77.3892 84.7392 77.5368 84.09 78.5407V78.5427Z" fill="white"/>
<path d="M83.4874 83.502C84.8749 84.739 85.0106 86.4924 83.8323 87.8206C82.6464 89.1566 80.8906 89.2246 79.5051 87.9896C78.1176 86.7526 77.9897 85.0069 79.1756 83.671C80.3616 82.335 82.0999 82.267 83.4874 83.504V83.502ZM79.788 84.2147C78.978 85.1254 79.1233 86.2905 80.1775 87.2284C81.2317 88.1682 82.4099 88.1837 83.22 87.273C84.03 86.3604 83.8672 85.1992 82.813 84.2593C81.7588 83.3195 80.5961 83.302 79.788 84.2147Z" fill="white"/>
<path d="M77.8192 87.9625L77.0866 88.5917C76.4782 88.048 75.8852 88.079 75.2088 88.6616C74.6236 89.1645 74.5015 89.747 74.8852 90.1956C75.2302 90.5995 75.5732 90.5917 76.3231 90.1684L76.8967 89.8364C77.9974 89.2092 78.7358 89.2577 79.3636 89.9917C80.0458 90.7898 79.852 91.8617 78.8637 92.7122C77.8579 93.5763 76.8289 93.6016 76.0014 92.8015L76.7339 92.1724C77.2707 92.6345 77.7765 92.6132 78.354 92.1161C78.9121 91.6364 79.0226 91.0966 78.6602 90.6752C78.3385 90.2985 77.9742 90.2636 77.232 90.6752L76.6157 91.0306C75.4162 91.7258 74.8329 91.6384 74.174 90.8694C73.4357 90.0072 73.6159 88.9936 74.6972 88.0654C75.8231 87.0984 76.9374 87.0635 77.8172 87.9625H77.8192Z" fill="white"/>
<path d="M71.4435 94.4772C72.3562 96.1375 72.0209 97.7298 70.5947 98.5182C69.8137 98.9493 68.901 98.9434 68.1491 98.4755L68.1064 98.4988L69.9028 101.769L69.0366 102.246L64.8489 94.6287L65.6822 94.1685L66.2286 95.1627L66.2596 95.1452C66.279 94.2792 66.7829 93.4908 67.5851 93.0481C69.0114 92.2616 70.5326 92.8267 71.4415 94.4772H71.4435ZM67.7518 93.8947C66.7073 94.4714 66.4825 95.6171 67.1569 96.8443C67.8313 98.0716 68.9339 98.4988 69.9687 97.9259C71.0036 97.3531 71.238 96.2035 70.5578 94.9666C69.8776 93.7296 68.7983 93.318 67.7518 93.8947Z" fill="white"/>
<path d="M64.876 97.9745C65.5349 99.7649 64.8605 101.316 63.1649 101.944C61.5817 102.53 60.2116 101.775 59.5391 99.9493L59.4229 99.6328L63.8005 98.0133C63.3102 96.8948 62.3994 96.4443 61.2929 96.856C60.3996 97.1861 60.0023 97.7842 60.0624 98.4697L59.1457 98.8075C58.95 97.6832 59.605 96.6036 61.008 96.0832C62.7153 95.4521 64.223 96.1939 64.878 97.9726L64.876 97.9745ZM60.5856 99.9998C61.0546 101.101 61.9092 101.532 62.88 101.173C63.9652 100.771 64.3838 99.8833 64.0563 98.7163L60.5836 100.002L60.5856 99.9998Z" fill="white"/>
<path d="M54.9618 99.6793C55.082 100.493 54.7331 101.093 53.9677 101.439C53.4309 101.677 52.6616 101.841 51.7566 102.145C51.3632 102.289 51.2605 102.415 51.3051 102.712C51.4213 103.501 51.9601 103.848 52.8185 103.72C53.6305 103.6 54.1053 103.114 54.1188 102.378L55.0839 102.235C55.1227 103.476 54.3107 104.328 52.9154 104.536C51.4368 104.755 50.495 104.078 50.2799 102.619L49.7083 98.7589L50.6617 98.6171L50.8167 99.6696L50.8516 99.6638C51.1403 98.9006 51.8205 98.3841 52.7139 98.2501C53.9657 98.0637 54.801 98.5996 54.9599 99.6735L54.9618 99.6793ZM52.6674 99.0812C51.5705 99.2443 50.9214 100.122 51.0803 101.198L51.15 101.664C51.555 101.359 52.8767 101.138 53.367 100.918C53.8456 100.701 54.053 100.365 53.9774 99.8618C53.8863 99.2521 53.4057 98.9705 52.6674 99.0793V99.0812Z" fill="white"/>
<path d="M43.854 96.6016L43.8618 100.056H43.9102C44.3424 99.2813 45.1369 98.8327 46.0283 98.8308C47.6561 98.8269 48.72 100.056 48.7239 101.953C48.7278 103.837 47.6697 105.072 46.0438 105.076C45.1272 105.076 44.3075 104.633 43.8715 103.885H43.8347V105.021L42.8851 105.023L42.8657 96.6054H43.854V96.6016ZM45.7648 99.6502C44.5846 99.6522 43.8269 100.561 43.8288 101.961C43.8327 103.363 44.5807 104.254 45.7745 104.252C46.9682 104.25 47.7123 103.367 47.7104 101.953C47.7065 100.54 46.9449 99.6483 45.7648 99.6502Z" fill="white"/>
<path d="M41.1294 101.297L40.6139 104.846L39.6353 104.705L40.1701 101.023C40.3213 99.9822 39.8329 99.3142 38.8563 99.1705C37.8544 99.0249 37.2226 99.5181 37.0695 100.571L36.5347 104.252L35.5444 104.109L36.0599 100.559C36.3041 98.8734 37.3156 98.1181 38.9745 98.3608C40.6333 98.6035 41.3755 99.6152 41.1294 101.299V101.297Z" fill="white"/>
<path d="M31.9089 106L30.6687 105.689L32.7383 104.266L33.6627 104.497L31.9089 106ZM33.5154 103.6L32.5562 103.359L34.0387 97.4172L34.9979 97.658L33.5154 103.6Z" fill="white"/>
<path d="M28.1127 99.1901C27.758 100.048 26.9364 100.427 26.1225 100.089C25.2756 99.7377 24.9617 98.8871 25.3183 98.0289C25.6458 97.2366 26.4577 96.8813 27.3046 97.2327C28.1185 97.5706 28.4402 98.3978 28.1127 99.1901Z" fill="white"/>
<path d="M45.5013 83.2224C29.258 83.2224 16.0437 69.9812 16.0437 53.7049C16.0437 37.4285 29.258 24.1892 45.5013 24.1892C61.7445 24.1892 74.9588 37.4305 74.9588 53.7068H74.3775C74.3775 37.7528 61.4248 24.7718 45.5013 24.7718C29.5778 24.7718 16.6251 37.7509 16.6251 53.7049C16.6251 69.6588 29.5778 82.6399 45.5013 82.6399V83.2224Z" fill="white"/>
<path d="M45.4159 83.108C38.5229 82.9293 32.1105 80.0709 27.3627 75.0591C22.615 70.0473 20.0977 63.4839 20.276 56.5749C20.6383 42.5434 32.1493 31.374 46.0748 31.374C46.3016 31.374 46.5263 31.376 46.7531 31.3837C53.6461 31.5624 60.0585 34.4207 64.8063 39.4326C69.5541 44.4444 72.0714 51.0078 71.8931 57.9167L71.3117 57.9012C71.4861 51.1495 69.027 44.7318 64.3858 39.8345C59.7446 34.9353 53.4775 32.141 46.7376 31.9663C40.0015 31.7973 33.5949 34.2557 28.7076 38.9063C23.8184 43.557 21.0298 49.8368 20.8554 56.5905C20.681 63.3422 23.1401 69.7599 27.7813 74.6572C32.4225 79.5564 38.6896 82.3506 45.4295 82.5254L45.414 83.108H45.4159Z" fill="white"/>
<path d="M45.3309 82.9933C33.1106 82.2515 23.7701 71.688 24.5104 59.4429C25.2506 47.1978 35.7946 37.8383 48.0129 38.58C60.2331 39.3218 69.5736 49.8853 68.8334 62.1304L68.2539 62.0955C68.9729 50.1708 59.8784 39.883 47.978 39.1626C36.0775 38.4422 25.8107 47.5551 25.0917 59.4798C24.3728 71.4045 33.4672 81.6923 45.3677 82.4127L45.3328 82.9933H45.3309Z" fill="white"/>
<path d="M45.2397 82.8768C35.031 81.7622 27.6322 72.5347 28.7426 62.3052C29.2814 57.3497 31.7134 52.901 35.5911 49.7805C39.4688 46.658 44.327 45.2366 49.2724 45.7764C54.2179 46.3163 58.6575 48.7532 61.7717 52.6388C64.8878 56.5244 66.3063 61.3925 65.7676 66.3481L65.1901 66.2859C65.7114 61.4857 64.3374 56.7691 61.3182 53.0039C58.299 49.2406 53.9989 46.8794 49.2085 46.3551C44.4161 45.8327 39.711 47.2095 35.9535 50.2349C32.1979 53.2602 29.8414 57.5691 29.3182 62.3693C28.2407 72.2784 35.4108 81.2185 45.2998 82.2982L45.2378 82.8768H45.2397Z" fill="white"/>
<path d="M45.1428 82.7583C36.9475 81.2669 31.4905 73.3735 32.9788 65.1615C33.6997 61.1827 35.9224 57.7243 39.24 55.4233C42.5577 53.1203 46.571 52.2523 50.5397 52.9727C58.735 54.464 64.192 62.3575 62.7038 70.5695L62.1321 70.4646C63.5622 62.5692 58.3164 54.9786 50.437 53.5455C46.6194 52.8523 42.7611 53.6873 39.5714 55.901C36.3817 58.1146 34.2442 61.441 33.5504 65.2644C32.1203 73.1599 37.3661 80.7504 45.2455 82.1835L45.1408 82.7563L45.1428 82.7583Z" fill="white"/>
<path d="M45.0342 82.6361C38.8543 80.7623 35.3487 74.1989 37.2187 68.0065C38.1256 65.0064 40.143 62.5402 42.9006 61.0606C45.6581 59.5809 48.8266 59.2663 51.8186 60.1751C57.9985 62.049 61.5041 68.6123 59.6341 74.8048L59.0779 74.6358C60.8549 68.7502 57.5237 62.5131 51.65 60.7324C48.8052 59.8702 45.7957 60.1673 43.1738 61.5732C40.5519 62.9791 38.6353 65.3229 37.7749 68.1735C36.9145 71.024 37.211 74.0397 38.614 76.667C40.017 79.2923 42.356 81.2147 45.2008 82.0769L45.0322 82.6342L45.0342 82.6361Z" fill="white"/>
<path d="M44.9025 82.4981C40.7458 80.2281 39.2091 74.993 41.4744 70.8278C43.7398 66.6645 48.9643 65.1227 53.121 67.3927C55.1345 68.4917 56.5995 70.3132 57.2468 72.5171C57.894 74.7211 57.646 77.0455 56.5491 79.063L56.0395 78.7834C57.0627 76.9018 57.2933 74.7347 56.6906 72.6803C56.0879 70.6258 54.7217 68.9287 52.8439 67.9034C48.9682 65.7868 44.0983 67.2237 41.986 71.1054C39.8738 74.9871 41.3078 79.8689 45.1816 81.9854L44.9025 82.4961V82.4981Z" fill="white"/>
</g>
<defs>
<clipPath id="clip0_572_843">
<rect width="99" height="106" fill="white"/>
</clipPath>
</defs>
</svg>
