<svg width="20" height="19" viewBox="0 0 20 19" fill="none" xmlns="http://www.w3.org/2000/svg">
<path d="M3.88477 18.1206C5.05518 18.1206 7.4126 17.0083 9.22217 15.7217C15.124 15.7964 19.5234 12.3682 19.5234 7.86914C19.5234 3.51123 15.1821 0 9.76172 0C4.34131 0 0 3.51123 0 7.86914C0 10.6001 1.66846 13.0488 4.25 14.3521C3.90137 14.9912 3.31201 15.8794 2.96338 16.3525C2.37402 17.1328 2.80566 18.1206 3.88477 18.1206ZM4.96387 16.2031C4.83936 16.2529 4.78955 16.1948 4.88086 16.0786C5.271 15.5889 5.88525 14.792 6.20898 14.1943C6.46631 13.7212 6.3584 13.3062 5.81885 13.0488C3.34521 11.8784 1.88428 10.0024 1.88428 7.86914C1.88428 4.57373 5.37891 1.88428 9.76172 1.88428C14.1362 1.88428 17.6309 4.57373 17.6309 7.86914C17.6309 11.1729 14.1362 13.854 9.76172 13.854C9.62061 13.854 9.40479 13.854 9.14746 13.8457C8.78223 13.8457 8.5166 13.9453 8.17627 14.2192C7.18848 14.958 5.69434 15.9126 4.96387 16.2031Z" fill="#4D4E50"/>
</svg>
