<svg width="14" height="16" viewBox="0 0 14 16" fill="none" xmlns="http://www.w3.org/2000/svg">
<path d="M1.55078 15.4443C1.91602 15.4443 2.23975 15.3198 2.65479 15.0791L12.5078 9.36816C13.2466 8.94482 13.5786 8.58789 13.5786 8.01514C13.5786 7.45068 13.2466 7.09375 12.5078 6.66211L2.65479 0.951172C2.23975 0.710449 1.91602 0.585938 1.55078 0.585938C0.828613 0.585938 0.289062 1.14209 0.289062 2.03027V14C0.289062 14.8965 0.828613 15.4443 1.55078 15.4443ZM2.28955 13.0952C2.23975 13.0952 2.21484 13.062 2.21484 13.0039V3.02637C2.21484 2.96826 2.23975 2.93506 2.28955 2.93506C2.31445 2.93506 2.34766 2.95166 2.38086 2.96826L10.9639 7.93213C10.9971 7.94873 11.0303 7.97363 11.0303 8.01514C11.0303 8.05664 10.9971 8.08154 10.9639 8.10645L2.38086 13.062C2.34766 13.0786 2.31445 13.0952 2.28955 13.0952Z" fill="white"/>
</svg>
