<svg width="34" height="34" viewBox="0 0 34 34" fill="none" xmlns="http://www.w3.org/2000/svg">
<path d="M17 21.8139C17.2653 21.8139 17.5109 21.727 17.7762 21.4761L21.0579 18.3782C21.2347 18.1949 21.333 18.0115 21.333 17.7606C21.333 17.2684 20.9301 16.921 20.4487 16.921C20.2031 16.921 19.9574 17.0175 19.7806 17.2008L18.4935 18.5616L17.8843 19.2854L18.0022 17.8571V7.97472C18.0022 7.45358 17.56 7 17 7C16.44 7 15.988 7.45358 15.988 7.97472V17.8571L16.1157 19.2854L15.5066 18.5616L14.2096 17.2008C14.0426 17.0175 13.7871 16.921 13.5415 16.921C13.06 16.921 12.6572 17.2684 12.6572 17.7606C12.6572 18.0115 12.7555 18.1949 12.9421 18.3782L16.2238 21.4761C16.4793 21.727 16.7347 21.8139 17 21.8139ZM11.3308 28H22.6692C24.8504 28 26 26.8709 26 24.7574V15.3575C26 13.244 24.8504 12.1149 22.6692 12.1149H20.0655V14.267H22.4825C23.3373 14.267 23.809 14.7013 23.809 15.5795V24.5354C23.809 25.4233 23.3373 25.8479 22.4825 25.8479H11.5175C10.6528 25.8479 10.191 25.4233 10.191 24.5354V15.5795C10.191 14.7013 10.6528 14.267 11.5175 14.267H13.964V12.1149H11.3308C9.15939 12.1149 8 13.244 8 15.3575V24.7574C8 26.8805 9.15939 28 11.3308 28Z" fill="#D1D1D1"/>
</svg>
