<svg width="21" height="20" viewBox="0 0 21 20" fill="none" xmlns="http://www.w3.org/2000/svg">
<path d="M10.5 18.3242C10.6909 18.3242 10.8735 18.3076 11.0811 18.291L11.5376 19.1543C11.6455 19.395 11.8862 19.5112 12.1602 19.478C12.4175 19.4282 12.6084 19.229 12.6416 18.9634L12.7744 17.9922C13.1479 17.8926 13.5132 17.7515 13.8701 17.6104L14.584 18.2495C14.7832 18.4321 15.0405 18.4653 15.2896 18.3325C15.522 18.1997 15.6133 17.9507 15.5635 17.6851L15.356 16.7305C15.6714 16.5146 15.9702 16.2656 16.2524 15.9917L17.1489 16.3652C17.3979 16.4731 17.647 16.4067 17.8379 16.1826C18.0039 16 18.0288 15.7261 17.8877 15.502L17.3647 14.6636C17.5806 14.3564 17.7632 14.0161 17.9375 13.6592L18.917 13.709C19.1743 13.7256 19.415 13.5679 19.498 13.3188C19.5811 13.0698 19.498 12.8042 19.2905 12.6465L18.5269 12.0405C18.6265 11.6753 18.7012 11.2935 18.7344 10.895L19.6558 10.6045C19.9131 10.5132 20.0791 10.3057 20.0791 10.04C20.0791 9.76611 19.9131 9.56689 19.6558 9.47559L18.7344 9.17676C18.7012 8.78662 18.6182 8.41309 18.5269 8.03125L19.2905 7.42529C19.498 7.26758 19.5811 7.01855 19.498 6.76953C19.415 6.51221 19.1743 6.36279 18.917 6.37939L17.9375 6.4126C17.7632 6.05566 17.5806 5.72363 17.3647 5.4082L17.8877 4.57812C18.0288 4.3623 18.0039 4.08838 17.8379 3.89746C17.647 3.68164 17.3979 3.61523 17.1406 3.71484L16.2524 4.08008C15.9702 3.82275 15.6714 3.56543 15.356 3.34131L15.5635 2.39502C15.6133 2.12109 15.5137 1.88037 15.2896 1.75586C15.0405 1.61475 14.7749 1.63965 14.584 1.83057L13.8701 2.46973C13.5132 2.32031 13.1479 2.1875 12.7744 2.07959L12.6416 1.125C12.6084 0.859375 12.4175 0.660156 12.1602 0.610352C11.8862 0.568848 11.6455 0.693359 11.5376 0.91748L11.0811 1.78906C10.8735 1.77246 10.6909 1.76416 10.5 1.76416C10.3008 1.76416 10.1182 1.77246 9.91064 1.78906L9.4541 0.91748C9.34619 0.693359 9.10547 0.568848 8.83154 0.610352C8.57422 0.660156 8.3833 0.859375 8.3501 1.125L8.21729 2.07959C7.84375 2.1875 7.47852 2.32031 7.12158 2.46973L6.40771 1.83887C6.2168 1.64795 5.95117 1.62305 5.70215 1.75586C5.47803 1.88037 5.37842 2.12109 5.42822 2.40332L5.63574 3.34131C5.32031 3.56543 5.02148 3.82275 4.73926 4.08008L3.84277 3.71484C3.59375 3.61523 3.34473 3.68164 3.15381 3.89746C2.98779 4.08838 2.97119 4.3623 3.104 4.57812L3.62695 5.4082C3.41113 5.72363 3.22852 6.05566 3.0542 6.4126L2.07471 6.37939C1.81738 6.36279 1.57666 6.51221 1.49365 6.76953C1.41064 7.01855 1.48535 7.27588 1.70117 7.42529L2.46484 8.03955C2.37354 8.41309 2.29053 8.78662 2.26562 9.17676L1.33594 9.47559C1.07031 9.56689 0.920898 9.76611 0.920898 10.04C0.920898 10.3057 1.07031 10.5132 1.33594 10.6045L2.26562 10.895C2.29053 11.2935 2.37354 11.6753 2.46484 12.0405L1.70117 12.6465C1.49365 12.8042 1.41064 13.0698 1.49365 13.3105C1.57666 13.5679 1.81738 13.7256 2.08301 13.709L3.0542 13.6592C3.22852 14.0161 3.41113 14.3564 3.62695 14.6636L3.104 15.502C2.96289 15.7261 2.98779 16 3.15381 16.1826C3.34473 16.4067 3.59375 16.4731 3.85107 16.3652L4.73926 15.9917C5.02148 16.2656 5.32031 16.5146 5.63574 16.7305L5.42822 17.6934C5.37842 17.9507 5.47803 18.1997 5.70215 18.3325C5.95117 18.4653 6.2168 18.4321 6.40771 18.2495L7.12158 17.6104C7.47852 17.7515 7.84375 17.8926 8.21729 18.0005L8.3501 18.9634C8.3833 19.229 8.57422 19.4282 8.83984 19.478C9.10547 19.5112 9.34619 19.3867 9.4541 19.1626L9.91064 18.291C10.1099 18.3076 10.3008 18.3242 10.5 18.3242ZM12.7744 9.30957C12.3428 8.22217 11.4795 7.63281 10.4834 7.63281C10.3506 7.63281 10.2012 7.64941 9.96045 7.69922L7.81885 4.01367C8.63232 3.64844 9.53711 3.44922 10.5 3.44922C13.9116 3.44922 16.6343 5.99756 16.9912 9.30957H12.7744ZM3.97559 10.04C3.97559 7.87354 4.97168 5.96436 6.55713 4.76904L8.72363 8.47119C8.28369 8.97754 8.08447 9.50879 8.08447 10.0649C8.08447 10.5962 8.27539 11.0942 8.71533 11.6172L6.49072 15.2695C4.94678 14.0659 3.97559 12.1733 3.97559 10.04ZM9.49561 10.0566C9.49561 9.50049 9.96045 9.06885 10.4917 9.06885C11.0479 9.06885 11.4961 9.50049 11.4961 10.0566C11.4961 10.6045 11.0479 11.0527 10.4917 11.0527C9.96875 11.0527 9.49561 10.6045 9.49561 10.0566ZM10.5 16.6309C9.51221 16.6309 8.58252 16.415 7.74414 16.0249L9.95215 12.4141C10.1846 12.4722 10.3423 12.4805 10.4834 12.4805C11.4878 12.4805 12.3511 11.8828 12.7661 10.7705H16.9912C16.6343 14.0742 13.9116 16.6309 10.5 16.6309Z" fill="white"/>
</svg>
