<svg width="15" height="17" viewBox="0 0 15 17" fill="none" xmlns="http://www.w3.org/2000/svg">
<path d="M7.09717 16.9751C7.24658 16.9751 7.479 16.917 7.69482 16.8008C12.5093 14.2275 14.1943 12.9824 14.1943 9.96094V3.73535C14.1943 2.66455 13.8042 2.26611 12.8911 1.87598C12.0112 1.50244 8.93994 0.439941 8.09326 0.157715C7.77783 0.0664062 7.4126 0 7.09717 0C6.78174 0 6.4082 0.074707 6.10107 0.157715C5.25439 0.398438 2.1748 1.51074 1.30322 1.87598C0.390137 2.25781 0 2.66455 0 3.73535V9.96094C0 12.9824 1.69336 14.2192 6.49121 16.8008C6.70703 16.917 6.93945 16.9751 7.09717 16.9751ZM7.09717 15.0493C6.98926 15.0493 6.87305 15.0161 6.64062 14.8667C2.88037 12.5591 1.74316 11.9863 1.74316 9.64551V4.00928C1.74316 3.71045 1.80127 3.58594 2.03369 3.48633C3.2373 3.00488 5.57812 2.23291 6.58252 1.84277C6.81494 1.76807 6.95605 1.73486 7.09717 1.73486C7.22998 1.73486 7.37939 1.76807 7.60352 1.84277C8.60791 2.23291 10.9321 3.04639 12.1523 3.48633C12.3848 3.57764 12.4512 3.71045 12.4512 4.00928V9.64551C12.4512 12.0112 11.231 12.6587 7.54541 14.8667C7.31299 15.0078 7.20508 15.0493 7.09717 15.0493ZM4.14209 11.2061C4.14209 11.8452 4.42432 12.144 5.01367 12.144H9.18066C9.77002 12.144 10.0522 11.8452 10.0522 11.2061V8.01855C10.0522 7.4624 9.82812 7.17188 9.37988 7.11377V6.20898C9.37988 4.68164 8.4585 3.66064 7.09717 3.66064C5.73584 3.66064 4.81445 4.68164 4.81445 6.20898V7.11377C4.36621 7.17188 4.14209 7.4624 4.14209 8.01855V11.2061ZM5.86865 7.08887V6.13428C5.86865 5.25439 6.3584 4.68164 7.09717 4.68164C7.84424 4.68164 8.32568 5.25439 8.32568 6.13428V7.08887H5.86865Z" fill="#4D4E50"/>
</svg>
