<svg width="11" height="18" viewBox="0 0 11 18" fill="none" xmlns="http://www.w3.org/2000/svg">
<g clip-path="url(#clip0_3_676)">
<path d="M2.846 2.24466V0.748219C2.846 0.334917 3.16448 0 3.55749 0H4.98049C5.37351 0 5.69199 0.334917 5.69199 0.748219V2.24466C5.69199 2.65796 5.37351 2.99287 4.98049 2.99287C4.58747 2.99287 4.26899 3.32779 4.26899 3.74109V14.2375C4.26899 14.6508 3.95051 14.9857 3.55749 14.9857C3.16448 14.9857 2.846 15.3207 2.846 15.734V17.2506C2.846 17.6639 2.52752 17.9988 2.1345 17.9988H0.711499C0.31848 18 0 17.6651 0 17.2518V15.7352C0 15.3219 0.31848 14.9869 0.711499 14.9869C1.10452 14.9869 1.423 14.652 1.423 14.2387V3.74109C1.423 3.32779 1.74148 2.99287 2.1345 2.99287C2.52752 2.99287 2.846 2.65796 2.846 2.24466Z" fill="white"/>
<path d="M8.15401 2.24466V0.748219C8.15401 0.334917 8.47249 0 8.86551 0H10.2885C10.6815 0 11 0.334917 11 0.748219V2.24466C11 2.65796 10.6815 2.99287 10.2885 2.99287C9.89549 2.99287 9.57701 3.32779 9.57701 3.74109V14.2375C9.57701 14.6508 9.25853 14.9857 8.86551 14.9857C8.47249 14.9857 8.15401 15.3207 8.15401 15.734V17.2506C8.15401 17.6639 7.83553 17.9988 7.44251 17.9988H6.01952C5.6265 17.9988 5.30802 17.6639 5.30802 17.2506V15.734C5.30802 15.3207 5.6265 14.9857 6.01952 14.9857C6.41254 14.9857 6.73102 14.6508 6.73102 14.2375V3.74109C6.73102 3.32779 7.0495 2.99287 7.44251 2.99287C7.83553 2.99287 8.15401 2.65796 8.15401 2.24466Z" fill="white"/>
</g>
<defs>
<clipPath id="clip0_3_676">
<rect width="11" height="18" fill="white"/>
</clipPath>
</defs>
</svg>
