<svg width="21" height="17" viewBox="0 0 21 17" fill="none" xmlns="http://www.w3.org/2000/svg">
<path d="M1.90995 12.4127H4.61021C4.69489 12.4127 4.77016 12.4416 4.83602 12.4994L9.0793 16.3929C9.53091 16.8073 9.87903 17 10.3306 17C10.9328 17 11.3938 16.5471 11.3938 15.9206V1.13719C11.3938 0.510771 10.9328 0 10.3118 0C9.86022 0 9.56855 0.212018 9.0793 0.664966L4.83602 4.51984C4.77016 4.57766 4.69489 4.60658 4.61021 4.60658H1.90995C0.630376 4.60658 0 5.27154 0 6.66893V10.36C0 11.7574 0.639785 12.4127 1.90995 12.4127ZM18.0551 15.1111C18.4032 15.352 18.836 15.2653 19.0901 14.8991C20.2944 13.2029 21 10.8707 21 8.49036C21 6.10998 20.3038 3.7585 19.0901 2.08163C18.836 1.71542 18.4032 1.62868 18.0551 1.86961C17.707 2.11054 17.6505 2.56349 17.9234 2.95862C18.9489 4.44274 19.5417 6.43764 19.5417 8.49036C19.5417 10.5431 18.9301 12.5187 17.9234 14.0221C17.6599 14.4172 17.707 14.8702 18.0551 15.1111ZM1.97581 11.0057C1.62769 11.0057 1.46774 10.8418 1.46774 10.4853V6.54365C1.46774 6.17744 1.62769 6.01361 1.97581 6.01361H4.98656C5.23118 6.01361 5.41935 5.96542 5.63575 5.76304L9.64382 2.03345C9.69086 1.98526 9.7379 1.95635 9.80376 1.95635C9.86962 1.95635 9.92607 2.00454 9.92607 2.09127V14.8991C9.92607 14.9858 9.86962 15.0437 9.80376 15.0437C9.75672 15.0437 9.70027 15.0147 9.64382 14.9666L5.63575 11.2562C5.41935 11.0635 5.23118 11.0057 4.98656 11.0057H1.97581ZM14.5739 12.5958C14.8844 12.8175 15.3266 12.75 15.5806 12.3742C16.3051 11.4008 16.7379 9.96485 16.7379 8.49036C16.7379 7.01587 16.3051 5.58957 15.5806 4.60658C15.3266 4.23073 14.8844 4.15363 14.5739 4.38492C14.1882 4.65476 14.1317 5.13662 14.4234 5.53175C14.9691 6.30272 15.2796 7.37245 15.2796 8.49036C15.2796 9.60828 14.9597 10.6684 14.4234 11.449C14.1411 11.8537 14.1882 12.3163 14.5739 12.5958Z" fill="white"/>
</svg>
