<svg width="17" height="17" viewBox="0 0 17 17" fill="none" xmlns="http://www.w3.org/2000/svg">
<path d="M12.2417 10.0405L12.25 1.69824C12.25 1.08398 11.7852 0.585938 11.1626 0.585938C10.7393 0.585938 10.4404 0.776855 9.97559 1.19189L6.49756 4.28809L7.55176 5.33398L10.4321 2.71924C10.4736 2.68604 10.5151 2.65283 10.5732 2.65283C10.6313 2.65283 10.6812 2.70264 10.6812 2.77734V8.47168L12.2417 10.0405ZM15.0059 16.2412C15.2632 16.4985 15.6865 16.4985 15.9355 16.2412C16.1929 15.9839 16.2012 15.5688 15.9355 15.3115L1.42578 0.801758C1.16846 0.544434 0.736816 0.544434 0.479492 0.801758C0.230469 1.05078 0.230469 1.48242 0.479492 1.73975L15.0059 16.2412ZM3.7915 11.543H6.14893C6.21533 11.543 6.28174 11.5679 6.33154 11.6094L9.98389 14.8716C10.4155 15.2617 10.7476 15.436 11.1792 15.436C11.5693 15.436 11.8931 15.2534 12.084 14.9214L10.731 13.5767L7.07031 10.2729C6.9043 10.1152 6.77979 10.082 6.55566 10.082H3.93262C3.65039 10.082 3.52588 9.94922 3.52588 9.66699V6.35498L2.31396 5.15137C2.08154 5.4502 1.95703 5.87354 1.95703 6.42969V9.61719C1.95703 10.9038 2.57959 11.543 3.7915 11.543Z" fill="white"/>
</svg>
